# xmcd CD database file
#
# Track frame offsets:
#	150
#	11256
#	19592
#	29764
#	36831
#	54309
#	64338
#	76169
#	85665
#	95488
#	115248
#	131524
#	142210
#	151649
#	158641
#	166672
#	176729
#	192864
#	204565
#	215668
#	225244
#	236430
#	251846
#
# Disc length: 3452 seconds
#
# Revision: 0
# Processed by: cddbd v1.5.2PL0 Copyright (c) Steve Scherf et al.
# Submitted via: CDex 1.51
#
DISCID=260d7a17
DTITLE=Perth Express - Perth Express
DYEAR=2007
DGENRE=Salsa
TTITLE0=Less than a Second
TTITLE1=Schon Gewusst?
TTITLE2=1001
TTITLE3=Ace of Spades
TTITLE4=Heidepark Soltau
TTITLE5=Funf Vor Pflicht
TTITLE6=After Many a Summer Dies teh Swan
TTITLE7=End of the Line
TTITLE8=50 59 N, 12 26 O
TTITLE9=Neverending Einbahnstrasse
TTITLE10=Kollektivdisziplin
TTITLE11=Gefangen in der Mikrowelt
TTITLE12=Perpetuum Mobile
TTITLE13=Richtungsfolge, Folgerichtig
TTITLE14=Unterkante Oberlippe
TTITLE15=Readtrip to Paradise
TTITLE16=U-Turn
TTITLE17=Homo Irrationale
TTITLE18=Liebeskontrolle
TTITLE19=Perpetuum Mobile
TTITLE20=Liebeskontrolle
TTITLE21=Kollektivdisziplin
TTITLE22=Richtungsfolge, Folgerichtig
EXTD=YEAR: 2007
EXTT0=
EXTT1=
EXTT2=
EXTT3=
EXTT4=
EXTT5=
EXTT6=
EXTT7=
EXTT8=
EXTT9=
EXTT10=
EXTT11=
EXTT12=
EXTT13=
EXTT14=
EXTT15=
EXTT16=
EXTT17=
EXTT18=
EXTT19=
EXTT20=
EXTT21=
EXTT22=
PLAYORDER=
